inDegrees=no
num_controls=7
num_derivatives=13
num_iterations=76
num_multipliers=7
num_parameters=0
num_slacks=7
num_states=26
objective=0.454598
objective_accelerations=0.045733
objective_balance=0.000842
objective_effort=0.036982
objective_height=0.364927
objective_ligament=0.006115
solver_duration=854.431493
status=Solve_Succeeded
success=true
DataType=double
version=3
OpenSimVersion=4.5
endheader
time	/jointset/ground_pelvis/pelvis_tilt/value	/jointset/ground_pelvis/pelvis_tx/value	/jointset/ground_pelvis/pelvis_ty/value	/jointset/hip_r/hip_flexion_r/value	/jointset/hip_r/hip_adduction_r/value	/jointset/hip_r/hip_rotation_r/value	/jointset/back/lumbar_extension/value	/jointset/patellofemoral_r/patellar_flexion_r/value	/jointset/knee_r/knee_flexion_r/value	/jointset/knee_r/knee_adduction_r/value	/jointset/knee_r/knee_rotation_r/value	/jointset/ankle_r/ankle_angle_r/value	/jointset/subtalar_r/subtalar_angle_r/value	/jointset/ground_pelvis/pelvis_tilt/speed	/jointset/ground_pelvis/pelvis_tx/speed	/jointset/ground_pelvis/pelvis_ty/speed	/jointset/hip_r/hip_flexion_r/speed	/jointset/hip_r/hip_adduction_r/speed	/jointset/hip_r/hip_rotation_r/speed	/jointset/back/lumbar_extension/speed	/jointset/patellofemoral_r/patellar_flexion_r/speed	/jointset/knee_r/knee_flexion_r/speed	/jointset/knee_r/knee_adduction_r/speed	/jointset/knee_r/knee_rotation_r/speed	/jointset/ankle_r/ankle_angle_r/speed	/jointset/subtalar_r/subtalar_angle_r/speed	/forceset/tau_hip_flexion_r	/forceset/tau_hip_adduction_r	/forceset/tau_hip_rotation_r	/forceset/tau_knee_flexion_r	/forceset/tau_ankle_angle_r	/forceset/tau_subtalar_angle_r	/forceset/tau_lumbar_extension	lambda_cid13_p0	lambda_cid14_p0	lambda_cid14_p1	lambda_cid14_p2	lambda_cid14_p3	lambda_cid14_p4	lambda_cid14_p5	/jointset/ground_pelvis/pelvis_tilt/accel	/jointset/ground_pelvis/pelvis_tx/accel	/jointset/ground_pelvis/pelvis_ty/accel	/jointset/hip_r/hip_flexion_r/accel	/jointset/hip_r/hip_adduction_r/accel	/jointset/hip_r/hip_rotation_r/accel	/jointset/back/lumbar_extension/accel	/jointset/patellofemoral_r/patellar_flexion_r/accel	/jointset/knee_r/knee_flexion_r/accel	/jointset/knee_r/knee_adduction_r/accel	/jointset/knee_r/knee_rotation_r/accel	/jointset/ankle_r/ankle_angle_r/accel	/jointset/subtalar_r/subtalar_angle_r/accel	gamma_cid13_p0	gamma_cid14_p0	gamma_cid14_p1	gamma_cid14_p2	gamma_cid14_p3	gamma_cid14_p4	gamma_cid14_p5
1.5	-0.06734222348059603	0.0390060823723174	0.8221679576950573	0.7737886670663623	-0.252666746880005	-0.05660930351687959	-0.6218947503824744	0.9312863908583455	0.9312863908585314	0.06609287613033532	0.1736915523121551	0.2997088790298353	0.09336985498716334	0.4188433125324034	0.2105011895408402	0.4795607301986514	-1.911239897268985	0.03663894475269161	-0.5114729465956838	0.7973764235525348	-1.934875542687144	-1.934875542687091	0.09944812790461206	0.004630506178165364	-0.5231354287233507	-0.1142191499379764	-0.1470975370963363	-0.003404971804828621	0.03602751220080849	-0.3146943869305702	0.01720655382759522	-0.01673461542026694	0.2048054180435463	-9.173934678598178	-37.4121939571325	-12.90119261605348	1.431010670948262	-2.850906108546801	-632.4949682689025	60.40925397667157	0.05961431453594677	0.5132493382784907	-0.4673423781003667	-0.8887511755199045	0.2091442791377294	-0.1711052574273166	1.658762507964629	-1.357421797349781	-1.357421797349678	0.4742543185470172	0.006803283138107154	-0.5749637504572235	0.2055916483184514	8.881710590871869e-08	-2.755810011595261e-09	-1.611861538894591e-06	1.444533368923625e-07	1.641665477891226e-07	1.826671487177782e-07	-1.0747451621251e-06
1.51	-0.06315109989928989	0.04113653716877304	0.8269392261372039	0.7546338630905446	-0.2522904831337174	-0.06173264036339209	-0.6138394680248954	0.9118722556520625	0.9118722556521194	0.06711187708692355	0.1737394220879815	0.2944493755506912	0.09223718426962896	0.4193240856525788	0.2155643518278108	0.4745919732014984	-1.919465624891936	0.03860048618023255	-0.5131248901187526	0.8135669051744369	-1.947674859932844	-1.947674859932683	0.1043912590465806	0.004937364751564153	-0.5286821022157913	-0.1123147160015906	-0.1403033990078666	-0.005098056555459414	0.03527715591393978	-0.3107335027004344	0.0190067296463248	-0.0170363709451522	0.1984859300361484	-10.20372719516206	-36.55836329845716	-12.73512785849881	1.235920796250856	-3.003906270936396	-627.9796452871939	60.35778232468003	0.03371141697576257	0.4990580312275146	-0.5267552609437458	-0.7511910015140894	0.1876228717613026	-0.1516778332560285	1.582219570981938	-1.199708362644562	-1.19970836262868	0.5100620003869194	0.04174075219819837	-0.5320113847344802	0.1827628908889209	8.784872924451187e-08	1.348336623738424e-08	-1.316806449555585e-06	2.450182971433954e-07	1.25267484720773e-07	1.771248852404191e-07	-8.77100109884088e-07
1.52	-0.05895688806553897	0.04331686525956262	0.8316577844292947	0.7354044603493323	-0.2518950112137132	-0.06687038443183844	-0.6056256751347615	0.8923384229384289	0.8923384229383585	0.06818145325260236	0.1737901831710936	0.2891369068894031	0.09112353661637666	0.4194609630214525	0.22047584840763	0.4690187001874964	-1.926159650348146	0.04048057949573446	-0.514354390982195	0.829078530063496	-1.958815044157127	-1.958815044156861	0.1095631697231527	0.00520876763525817	-0.5337284651521123	-0.1104145370815928	-0.1335092609193878	-0.006791141306089247	0.03452679962708649	-0.3067726184702976	0.02080690546505383	-0.0173381264700365	0.1921664420287587	-11.23643330073579	-35.70654251346546	-12.56824003633239	1.039357160039161	-3.164308971789297	-623.4865422378176	60.34268258210425	-0.009164835724388819	0.482916196848207	-0.5882455814701911	-0.5824107421719686	0.1928546567299326	-0.08661672550200895	1.522991161396003	-1.025595193066675	-1.025595193066674	0.5200102254677	-0.0002878548028711729	-0.4749016392332925	0.2047406450408661	9.166800353362539e-08	2.623297817525036e-08	-1.163726082632352e-06	3.317121052078806e-07	1.027820442647436e-07	1.795519343655623e-07	-7.777737683906954e-07
1.53	-0.05476307528192047	0.04554550389710766	0.8363176546424764	0.7161158164683924	-0.2514811697592284	-0.07201823925166796	-0.5972601867176851	0.8727015165515505	0.8727015165515051	0.0693039514373846	0.1738433671643158	0.2837765029935929	0.09002884844908128	0.4192404615847548	0.2252216099465119	0.4628612578649903	-1.931307814139131	0.04227590755775522	-0.515153458817998	0.8439010364986191	-1.968283741771496	-1.968283741771317	0.1149595743003929	0.005415390293016292	-0.5382639656290286	-0.1085188233387069	-0.1267416372014203	-0.008538557834121035	0.03375457017525477	-0.3029665842562415	0.02262299804522948	-0.01769346269211932	0.1858824961596084	-12.26912502639616	-34.87229226473224	-12.43212822063301	0.8527600651621712	-3.295093383330022	-619.2640973387862	60.31723446928042	-0.03766030898050408	0.465884766096725	-0.6435669894683974	-0.441818367069487	0.171079614409564	-0.06693653781660788	1.444162856598872	-0.8651543969685896	-0.8651543969816164	0.5527642317552198	0.02929810470635247	-0.4295893270814799	0.1824975341563363	1.005741569606418e-07	3.527492803255858e-08	-1.161493858275878e-06	4.03667814074159e-07	9.773607783430434e-08	1.904463781308643e-07	-7.829110570666478e-07
1.54	-0.05057330101493712	0.04782069587677924	0.8409131357460674	0.6967835311156421	-0.2510497334774277	-0.07717216169489588	-0.5887500167418517	0.8529783937182586	0.8529783937182376	0.07048107539951837	0.1738982495398437	0.2783734010779814	0.0889532195782637	0.4186532596945365	0.2297865168329379	0.4561408782693699	-1.934887944710423	0.04399954495863241	-0.5155679156616875	0.8580148418148779	-1.976058333439731	-1.976058333439639	0.1204883251937524	0.005548444096420536	-0.5422680691123726	-0.1066026777860649	-0.1199740134834453	-0.01028597436215138	0.03298234072343496	-0.2991605500421846	0.02443909062540485	-0.01804879891420031	0.1795985502904647	-13.29796323303864	-34.0404325816522	-12.2950898899017	0.6644782357357054	-3.432062639495691	-615.0701851161461	60.33274160683277	-0.08250492642850872	0.4467452663570181	-0.7008330360930594	-0.268804098233478	0.1785165245012303	-0.009694527079305565	1.381250937623106	-0.686774003839925	-0.6867740038399557	0.5464794886915476	-0.01500162567367494	-0.368622240518822	0.2088270069921033	1.092269616322417e-07	4.487962044488859e-08	-1.158745446592988e-06	4.753490322921005e-07	9.20871697478023e-08	2.031492604123322e-07	-7.908490719903664e-07
1.55	-0.04639124114082566	0.05014058833283553	0.8454386800327085	0.6774232691547966	-0.2506014826514377	-0.08232823355336834	-0.5801023345169209	0.8331860089082967	0.8331860089084249	0.07171427730706953	0.1739540512695817	0.2729329226969833	0.08789676842051924	0.4176952802549179	0.2341569232816289	0.4488817279384047	-1.936898961722231	0.04563655372113589	-0.5155895944284244	0.8713957399404714	-1.98213066358024	-1.982130663580179	0.1261662532871045	0.005600649882628812	-0.5457357222595112	-0.1046854717305306	-0.1132276351537704	-0.01208564288551924	0.03219269760358759	-0.2955456558833321	0.02631422332812356	-0.01848028566506546	0.1733549563215891	-14.31916132863288	-33.2159101516576	-12.19877135147093	0.4899569015231371	-3.546508053534996	-611.1832989553297	60.32391920663198	-0.1119554748709011	0.42694711346932	-0.7513484695635047	-0.127421014836133	0.1541784897405579	0.01028946086981397	1.297629765412714	-0.5242922198552584	-0.524292219859738	0.580426151870886	0.01373081353428341	-0.3220215892821613	0.1833675488419578	1.17587864476949e-07	5.513269014887411e-08	-1.155402297338358e-06	5.46713989545654e-07	8.574356801409754e-08	2.179357783754694e-07	-8.020140106343374e-07
1.56	-0.04222066326553951	0.05250313660924758	0.8498890543284467	0.658050862921397	-0.2501372846502983	-0.08748278339704083	-0.5713246192076574	0.8133415348567902	0.8133415348570666	0.07300465383199632	0.1740100548837341	0.2674605308370196	0.08685952935213183	0.4163568599296063	0.2383176809040893	0.4411068800888177	-1.937316799221306	0.0471889799882653	-0.5152635127015331	0.8840214586814741	-1.986476181748703	-1.986476181748671	0.131923248669008	0.005588820979483845	-0.5486507649054814	-0.1027602599146811	-0.1064812568240907	-0.01388531140888604	0.03140305448374767	-0.2919307617244794	0.02818935603084199	-0.01891177241592929	0.1671113623527177	-15.33000917755866	-32.39367421987644	-12.10138806626101	0.3135916089110533	-3.668397703228509	-607.3254324362289	60.35959128273339	-0.1585931035670994	0.4048155011108659	-0.8039725398174041	0.04983180431315493	0.1616000254264275	0.05985757164634262	1.230215060704931	-0.3414116094305047	-0.3414116094305203	0.5622929464018223	-0.02780856354435706	-0.2581001402851298	0.2104281590551676	1.256812211774379e-07	6.521720357189415e-08	-1.159782333109429e-06	6.146393702218225e-07	7.993413633985215e-08	2.352834253153418e-07	-8.199159023884854e-07
1.57	-0.03806535749393841	0.05490620623094985	0.854259198219576	0.6386821834499721	-0.2496580394863879	-0.0926322995540927	-0.5624245399077239	0.7934622226883323	0.7934622226883423	0.07435308204616184	0.1740655892775142	0.2619617539607035	0.08584151356914112	0.4146384182683101	0.2422571434070732	0.4328442083912391	-1.936149357095094	0.04864500999033401	-0.5145877218671244	0.8958607185256395	-1.989092544627726	-1.989092544627707	0.1377658091395872	0.005506948938250931	-0.5510082194851315	-0.1008405929909209	-0.09973629860028556	-0.0157880302339584	0.03060049724977706	-0.2885965314627083	0.03022037357013416	-0.01941633271619543	0.1609072270212608	-16.32833375859943	-31.55005642754842	-12.03786058622745	0.1493224612736844	-3.795884507454396	-603.8221010309512	60.39822692110852	-0.1883456100479851	0.3826609868867401	-0.8490144138448593	0.1906698323184149	0.135355829594026	0.07942134123024985	1.140729029335287	-0.1777201113530953	-0.1777201113550461	0.5955977907608523	7.005530007055246e-05	-0.2100760165866957	0.1829799525224467	1.33440145197654e-07	7.509102164370734e-08	-1.173816350162628e-06	6.782652801762597e-07	7.479241723993098e-08	2.558324834761332e-07	-8.462389855303544e-07
1.58	-0.03392921132147843	0.05734750035008088	0.8585443954079061	0.619333272282918	-0.2491646837540565	-0.09777346150242248	-0.5534100784927362	0.7735655525942418	0.7735655525939845	0.07576000790371049	0.1741199942668219	0.2564423009586344	0.08484274325408529	0.4125249401015307	0.2459625803898423	0.424117539528979	-1.933363138347154	0.05001109367227948	-0.5135926709570302	0.906897881692322	-1.989947766875344	-1.989947766875339	0.1436227773451594	0.005362940085530275	-0.5527859900560522	-0.09891116632772001	-0.09299134037647688	-0.01769074905902848	0.02979794001580255	-0.285262301200937	0.0322513911094266	-0.01992089301645812	0.1547030916898068	-17.31252611505476	-30.70780747903889	-11.97302453986588	-0.01692458655747522	-3.933447125424608	-600.336217583858	60.48352457280734	-0.2376004046637571	0.3580103970678696	-0.8967719727537062	0.3735871286586978	0.1436107614017944	0.1237095867835082	1.069795725208313	0.01081651685049564	0.01081651685049574	0.5651744934004165	-0.04023592584194453	-0.1421633385392649	0.2123801069433311	1.409260935264167e-07	8.542471474419696e-08	-1.18541295281334e-06	7.421531126593344e-07	6.907252489568078e-08	2.789548453894998e-07	-8.732212401740238e-07
1.59	-0.02981612831607881	0.05982461445049505	0.8627401021630722	0.6000202781549667	-0.2486581746850913	-0.102902994222488	-0.5442894153307852	0.7536691453435099	0.7536691453433209	0.07722568550320102	0.1741725995109608	0.2509079415856488	0.08386323419924199	0.4100250201310399	0.2494144695327228	0.4149542319032919	-1.928956280806852	0.05127408808119516	-0.5122627912068478	0.9170908701209401	-1.989028740058593	-1.989028740058566	0.1495070810054523	0.005147752828246592	-0.5539866420638255	-0.09698949649754685	-0.08633009622552153	-0.01957124670524381	0.02898359607701402	-0.2820371297530537	0.03416093046866377	-0.02052457826400585	0.1485854847019068	-18.2815474903671	-29.93669766896015	-11.97003437591925	-0.1660690667694571	-3.983133336288499	-597.2151131159462	60.49959403564042	-0.2661772293037228	0.3319243871462003	-0.9364828114515108	0.5161569667184034	0.1151701422578078	0.1454880496695256	0.9724683151502196	0.1781567895168871	0.1781567895201379	0.5990608475615345	-0.01357437390135441	-0.09409555693974571	0.1821436078097819	1.4804157484535e-07	9.638252395503313e-08	-1.193701635917818e-06	8.063964114312744e-07	6.256796886269836e-08	3.055695481099323e-07	-9.010980847129936e-07
